<svg width="32" height="32" viewBox="0 0 32 32" fill="none" xmlns="http://www.w3.org/2000/svg">
  <!-- Card background with gradient -->
  <rect x="2" y="2" width="28" height="28" rx="3" fill="url(#cardGradient)" stroke="url(#borderGradient)" stroke-width="2"/>
  
  <!-- Spade symbol with enhanced design -->
  <path d="M16 6C13.2 11.6 8 13.8 8 18C8 20.8 10.2 22.5 12.5 22.5C14.3 22.5 15.4 21.3 16 19.5C16.6 21.3 17.7 22.5 19.5 22.5C21.8 22.5 24 20.8 24 18C24 13.8 18.8 11.6 16 6Z" fill="url(#spadeGradient)"/>
  <path d="M13.5 22L16 28L18.5 22C18.5 22 17 23.2 16 23.2C15 23.2 13.5 22 13.5 22Z" fill="url(#stemGradient)"/>
  
  <!-- Subtle shine effect -->
  <path d="M16 7C14 11 10 14 10 18C10 19 10.5 20 11.5 20.5C10.5 19.5 10 18.5 10 17.5C10 14 14 12 16 8C18 12 22 14 22 17.5C22 18.5 21.5 19.5 20.5 20.5C21.5 20 22 19 22 18C22 14 18 11 16 7Z" fill="rgba(255,255,255,0.3)"/>
  
  <!-- Card corner decorations -->
  <circle cx="5" cy="5" r="1" fill="#D0312D"/>
  <circle cx="27" cy="5" r="1" fill="#D0312D"/>
  <circle cx="5" cy="27" r="1" fill="#D0312D"/>
  <circle cx="27" cy="27" r="1" fill="#D0312D"/>
  
  <!-- Definitions for gradients -->
  <defs>
    <linearGradient id="cardGradient" x1="2" y1="2" x2="30" y2="30" gradientUnits="userSpaceOnUse">
      <stop offset="0" stop-color="#FFFFFF"/>
      <stop offset="1" stop-color="#F0F0F0"/>
    </linearGradient>
    
    <linearGradient id="borderGradient" x1="2" y1="2" x2="30" y2="30" gradientUnits="userSpaceOnUse">
      <stop offset="0" stop-color="#333333"/>
      <stop offset="1" stop-color="#000000"/>
    </linearGradient>
    
    <radialGradient id="spadeGradient" cx="16" cy="14" r="10" gradientUnits="userSpaceOnUse">
      <stop offset="0" stop-color="#333333"/>
      <stop offset="1" stop-color="#000000"/>
    </radialGradient>
    
    <linearGradient id="stemGradient" x1="16" y1="22" x2="16" y2="28" gradientUnits="userSpaceOnUse">
      <stop offset="0" stop-color="#333333"/>
      <stop offset="1" stop-color="#000000"/>
    </linearGradient>
  </defs>
</svg>
